<?xml version="1.0" encoding="UTF-8"?> <!-- Generator: Adobe Illustrator 23.0.3, SVG Export Plug-In . SVG Version: 6.00 Build 0) --> <svg xmlns="http://www.w3.org/2000/svg" xmlns:xlink="http://www.w3.org/1999/xlink" id="Layer_1" x="0px" y="0px" viewBox="0 0 244 56" style="enable-background:new 0 0 244 56;" xml:space="preserve"> <style type="text/css"> .st0{fill-rule:evenodd;clip-rule:evenodd;fill:#35B34A;} .st1{fill-rule:evenodd;clip-rule:evenodd;fill:#FFFFFF;} .st2{fill-rule:evenodd;clip-rule:evenodd;} </style> <title>5219281D-E321-41A2-AD97-066B632DF320</title> <desc>Created with sketchtool.</desc> <g id="Page-1"> <g id="SkillFactory" transform="translate(-240.000000, -11.000000)"> <g id="logo" transform="translate(240.000000, 11.000000)"> <g id="head"> <path id="Fill-1" class="st0" d="M20.7,55.6c-1.7,0-1.6-0.1-4-1.5c-2.4-1.4-5.6-3.6-6.9-5c-1.3-1.4-3-3.8-3.4-4.9 c-0.5-1.3-1.2-3-0.9-3.9c0.2-0.5,0.6-1,1-2.5c0.4-1.3,0-3.7,0-4.5c0-0.6-0.5-2-1-3.1c-0.5-1-2.3-2.5-3-3.5c-0.7-1-2-4.1-2.2-5.3 c-0.2-1.2-0.4-4.8-0.1-6c0.5-2.5,1.1-3.9,1.7-5.1c0.7-1.6,3.6-4.6,4.6-5.3c2.2-1.5,4.5-2.8,7.3-3.6c1.9-0.6,3.3-0.8,4.9-0.9 C20.7,0.2,26,0.2,28,0.6c3,0.7,6,1.9,8,3.4c1.9,1.5,3.1,2.7,4.6,5.2c1,1.6,1.4,3.6,1.9,5.1c0.5,1.6,0.6,5.7,0.6,6.8 c0,1.1-0.4,2.4-0.5,2.6c-0.1,0.1-1.1,0.9-1.1,1.5s0,0.8,0.3,1.3c0.3,0.5,1.1,2.3,1.5,2.8c0.4,0.5,1.6,2.5,1.9,3.2 c0.3,0.7,0.8,1.4,0.4,2.2c-0.4,0.8-1.6,0.6-2.4,0.7c-0.7,0.1-1.7,0-1.9,0.7c-0.1,0.4,0.2,0.9,0.2,0.9c0.6,0.5,0.3,1.5-0.3,1.8 c-0.5,0.3-0.6,0.3-1.1,0.5c-0.5,0.2-0.4,0.2-0.1,0.7c0.3,0.5,0.3,1.1,0.2,1.5c-0.1,0.4-0.8,0.3-1.4,0.5c-0.5,0.2-1,0.4-1,1.1 c0,0.4,0.3,1.3,0,2.2c-0.3,0.8-1.3,1.9-2.2,2.3c-0.9,0.4-2.7,0.4-3.7,0.2c-1-0.2-2.7-0.8-3.4-1c-0.6-0.2-1.2,0.1-2,0.9 c-0.8,0.8-1.7,2.3-2.3,3.3c-0.6,1-1.7,2.8-2.3,3.4C21.7,55.3,20.7,55.6,20.7,55.6"></path> <path id="Combined-Shape" class="st1" d="M10.1,13.6h4.3v13.9h1.2v3.6h2.2c0.2-0.3,0.4-0.5,0.5-0.7c0,0,0.1-0.1,0.1-0.1h-2v-3.9 h-1.2V12.9h-1.9V4.2c-0.8,0.3-1.5,0.6-2.2,1h1.6v1.7h-1.7V5.2c-0.5,0.3-0.9,0.6-1.3,0.9c-2.9,2.3-3.4,3.4-4.2,5.3 c-0.1,0.2-0.1,0.3-0.2,0.5c-0.3,0.6-0.7,1.4-1.1,2.1c-0.5,0.9-1,1.8-1.1,2.3c-0.5,1.7-0.6,4.8,0.2,6.1c0.2,0.3,0.5,0.6,0.9,0.9 C4,23,3.8,22.6,3.8,22.1c0-0.9,0.8-1.7,1.7-1.7c0.9,0,1.6,0.6,1.7,1.5h5.3v-0.8h-0.9v-2l0.9,0v-0.9l-5.3,0 c-0.2,0.8-0.8,1.3-1.7,1.3c-0.9,0-1.7-0.8-1.7-1.7c0-0.9,0.8-1.7,1.7-1.7c0.8,0,1.5,0.6,1.7,1.3l6,0v2.4l-0.9,0v0.6h0.9v2.3H7.1 c-0.2,0.7-0.9,1.2-1.6,1.2c-0.1,0-0.2,0-0.4,0c0.3,0.2,0.7,0.3,1,0.5c0.6,0.3,1.1,0.9,1.4,1.5h4.2v2.8h2.9v4.4 c0.4,0.4,0.8,0.7,1.3,0.7c0.1,0,0.2,0,0.3,0c0.2-0.3,0.7-1.2,1.3-2h-2.3V28h-1.2V14.1h-3.9c-0.1,0.8-0.8,1.4-1.7,1.4 c-0.9,0-1.7-0.8-1.7-1.7s0.8-1.7,1.7-1.7C9.3,12.1,10,12.7,10.1,13.6z M36.2,16.2v-4.7l1.3-0.1c0.5,0.8,0.9,1.4,1,1.7l0,0.3 c0.2,1.2,0.5,4,0,5c-0.2,0.3-0.4,0.7-0.6,1h-3.5v2.8c-0.1,0-0.2,0-0.2,0c-0.4-0.1-0.9-0.1-1.3-0.1c-0.7,0-1.1,0.1-1.4,0.3h-8.4 v-4.9h6V7.9h-4.3V3.8c1.7,0.2,3.8,0.7,5.1,1.2v14.6h-3.2c-0.1-0.7-0.7-1.2-1.5-1.2c-0.8,0-1.5,0.7-1.5,1.5 c0,0.8,0.7,1.5,1.5,1.5c0.7,0,1.3-0.5,1.5-1.2h3.7V5.2c0,0,0,0,0,0c0.3,0.1,0.6,0.3,0.9,0.4c1.1,0.5,2.2,1.1,2.9,1.7 c0.4,0.4,1.2,1.3,2,2.3h-1.9v6.5h-0.9l0,3.2c-0.3-0.2-0.6-0.4-1-0.4c-0.8,0-1.5,0.7-1.5,1.5c0,0.8,0.7,1.5,1.5,1.5 c0.6,0,1.1-0.3,1.3-0.8l0.1,0l0-0.4c0-0.1,0-0.2,0-0.3c0-0.1,0-0.2,0-0.3l0-3.6h0.9v-6.5h1.8c0.2,0.3,0.5,0.6,0.7,0.9L35.7,11 v5.2c-0.7,0.1-1.2,0.7-1.2,1.5c0,0.8,0.7,1.5,1.5,1.5c0.8,0,1.5-0.7,1.5-1.5C37.4,16.9,36.9,16.3,36.2,16.2z M37.4,20.2 c-0.2,0.2-0.4,0.4-0.6,0.6c-0.6,0.6-1.2,1-1.7,1.2v-1.9H37.4z M38.1,20.1c0.3-0.4,0.6-0.9,0.9-1.4c0.6-1.1,0.3-3.9,0.1-5.3 l0-0.3c-0.2-1.3-3.8-5.3-4.6-6.1c-0.7-0.7-1.9-1.3-3-1.8c-0.3-0.1-0.6-0.3-0.9-0.4c-1.7-0.8-5.3-1.5-7.3-1.6 C22.4,3,21.3,3,20.2,3c-2.1,0-4,0.1-5,0.3c-1.9,0.3-4.2,1.3-5.7,2.4c-3,2.4-3.5,3.6-4.4,5.5C5,11.4,5,11.6,4.9,11.7 c-0.3,0.6-0.7,1.4-1.1,2.1c-0.5,1-1,1.9-1.2,2.4c-0.5,1.7-0.7,5,0.3,6.5c0.6,0.9,1.9,1.5,3,2c0.9,0.4,1.6,1.9,1.6,2.2 c0,0.6,1.9,2.8,3.1,3.3c0.3,0.1,0.8,0.2,1.2,0.3c0.4,0.1,1,0.2,1.1,0.3c0,0,0,0.1,0,0.1c0,0.4,0,1,0.7,1.6 c0.1,0.1,0.2,0.2,0.3,0.3v0.1H14c0,0,0.1,0.1,0.1,0.1c0.5,0.5,1.1,1.1,1.9,1.1c0.2,0,0.3,0,0.5-0.1l0.1,0l0-0.1 c0,0,1.6-2.5,2.1-3.2c0.1-0.2,0.3-0.3,0.4-0.5h0.2v-0.1c0.1-0.1,0.1-0.1,0.2-0.2c0.5-0.4,1-0.8,1.1-1.3c0.1-0.6,1.7-1.8,2.2-1.9 c0.5-0.1,1.6-0.1,2.7,0c0.8,0.1,1.2-0.4,1.6-0.8c0.2-0.3,0.5-0.5,0.8-0.6H28v0c0,0,0.1,0,0.1,0c0.6-0.1,1.5-0.6,2.2-1.1h0.1 v-0.1c0.2-0.2,0.5-0.4,0.6-0.6c0.3-0.4,0.5-0.6,0.5-0.6c0.1,0,0.1,0,0.2-0.1c0.1-0.1,0.5-0.2,1.1-0.2c0.4,0,0.8,0,1.2,0.1 c0.1,0,0.2,0,0.3,0c1.1,0,2.4-1.1,2.8-1.6C37.5,20.8,37.8,20.5,38.1,20.1L38.1,20.1L38.1,20.1z M31,22.8 c-0.1,0.1-0.2,0.2-0.3,0.3c-0.1,0.1-0.2,0.2-0.3,0.3H22v-7.2h6V9.2h-4.5V3.6c0.2,0,0.5,0,0.7,0.1v4.7h4.3V17h-6v5.8H31z M29.5,24.2c-0.5,0.3-1.1,0.6-1.5,0.6c-0.1,0-0.1,0-0.2,0.1h-7.2l0.1-3.9h-0.4v-6.2h6.4v-4.1h-4.4V3.5c0.2,0,0.4,0,0.6,0v6.3 h4.5v5.6h-6v8.7H29.5z M27,25.4c-0.1,0.1-0.2,0.2-0.3,0.3c-0.4,0.4-0.7,0.7-1.2,0.6c-0.6-0.1-1.1-0.1-1.6-0.1 c-0.4,0-0.8,0-1.1,0.1v-0.1h-3.5V23h-0.9v-9.3h1.9V3.5c0.5,0,1,0,1.5,0v7.6h4.4v3.1h-6.4v7.2h0.4l-0.1,3.9H27z M7.9,26.4 C8,26.6,8,26.8,8,26.9c0,0.3,1.7,2.3,2.8,2.8c0.2,0.1,0.7,0.2,1.1,0.2c0.8,0.1,1.5,0.2,1.5,0.7c0,0.1,0,0.1,0,0.2 c0,0.4,0,0.8,0.5,1.2c0,0,0,0,0,0v-3H11v-2.8H7.9z M21.9,26.7c-0.3,0.2-0.7,0.5-1,0.8h-2.4v-3h-1.4v-12h1.4v-9 c0.4,0,0.9,0,1.3,0v9.7h-1.9v10.2h0.9v3.2H21.9z M20.4,28c-0.2,0.2-0.3,0.4-0.3,0.6c-0.1,0.3-0.4,0.7-0.8,1h-2.1v-3.9H16V12.1 h-1.9V4c0.3-0.1,0.6-0.1,0.8-0.2v1.4h1.7V3.6c0.4,0,0.8,0,1.2-0.1v8.5h-1.4V25h1.4v3H20.4z M10.9,10.6c0,0.4-0.3,0.7-0.7,0.7h-1 c-0.4,0-0.7-0.3-0.7-0.7c0-0.4,0.3-0.7,0.7-0.7h1C10.5,9.8,10.9,10.2,10.9,10.6z M10.9,8.3c0,0.4-0.3,0.7-0.7,0.7h-1 C8.7,9,8.4,8.7,8.4,8.3c0-0.4,0.3-0.7,0.7-0.7h1C10.5,7.6,10.9,7.9,10.9,8.3z M23.2,12.7c0,0.4-0.3,0.7-0.7,0.7h-1 c-0.4,0-0.7-0.3-0.7-0.7c0-0.4,0.3-0.7,0.7-0.7h1C22.9,12,23.2,12.3,23.2,12.7z M28.3,5.8c0,0.4-0.3,0.7-0.7,0.7h-1 c-0.4,0-0.7-0.3-0.7-0.7s0.3-0.7,0.7-0.7h1C28,5.1,28.3,5.4,28.3,5.8z M14.8,11.1h2V9.2h-2V11.1z M14.8,8.3h2V6.4h-2V8.3z M23.6,13.6h2v-1.7h-2V13.6z M30.9,16.9h1.7v-1.7h-1.7V16.9z M30.9,13.4h1.7v-1.7h-1.7V13.4z M30.9,10.1h1.7V8.3h-1.7V10.1z M8.4,12.5c-0.7,0-1.2,0.5-1.2,1.2c0,0.7,0.5,1.2,1.2,1.2c0.7,0,1.2-0.5,1.2-1.2C9.6,13.1,9.1,12.5,8.4,12.5z M5.5,16.5 c-0.7,0-1.2,0.5-1.2,1.2c0,0.7,0.5,1.2,1.2,1.2s1.2-0.5,1.2-1.2C6.7,17.1,6.1,16.5,5.5,16.5z M5.5,20.9c-0.7,0-1.2,0.5-1.2,1.2 c0,0.7,0.5,1.2,1.2,1.2s1.2-0.5,1.2-1.2C6.7,21.5,6.1,20.9,5.5,20.9z M35.9,16.7c-0.5,0-1,0.4-1,1c0,0.5,0.4,1,1,1 c0.5,0,1-0.4,1-1C36.9,17.1,36.5,16.7,35.9,16.7z M32.2,19.4c-0.5,0-1,0.4-1,1c0,0.5,0.4,1,1,1c0.5,0,1-0.4,1-1 C33.2,19.8,32.8,19.4,32.2,19.4z M25.2,18.8c-0.5,0-1,0.4-1,1c0,0.5,0.4,1,1,1c0.5,0,1-0.4,1-1C26.2,19.2,25.7,18.8,25.2,18.8z"></path> </g> <path id="skillfactory" class="st2" d="M72.7,13.5c0.7,0.3,1.3,0.7,1.8,1.2c0.5,0.5,0.9,1.1,1.2,1.8c0.3,0.7,0.5,1.4,0.5,2.2v1.7 c0,0.4-0.2,0.7-0.6,0.8l-4.1,1.1c-0.4,0.1-0.6,0-0.6-0.5v-3c0-0.3-0.1-0.6-0.3-0.8c-0.2-0.2-0.5-0.3-0.8-0.3h-0.4 c-0.3,0-0.6,0.1-0.8,0.3c-0.2,0.2-0.3,0.5-0.3,0.8v4.1c0,0.3,0.1,0.6,0.2,0.9c0.1,0.2,0.3,0.5,0.5,0.7l5.9,4.5 c0.5,0.4,0.8,0.9,0.9,1.3c0.1,0.4,0.2,0.9,0.3,1.5v7.8c0,0.8-0.2,1.5-0.5,2.2c-0.3,0.7-0.7,1.3-1.2,1.8c-0.5,0.5-1.1,0.9-1.8,1.2 c-0.7,0.3-1.4,0.5-2.2,0.5h-1.7c-0.8,0-1.5-0.2-2.2-0.5c-0.7-0.3-1.3-0.7-1.8-1.2c-0.5-0.5-0.9-1.1-1.2-1.8 c-0.3-0.7-0.5-1.4-0.5-2.2v-4.4c0-0.4,0.2-0.7,0.6-0.8l4.1-1.1c0.4-0.1,0.6,0,0.6,0.5v5.6c0,0.3,0.1,0.6,0.3,0.8 c0.2,0.2,0.5,0.3,0.8,0.3h0.4c0.3,0,0.6-0.1,0.8-0.3c0.2-0.2,0.3-0.5,0.3-0.8v-6c0-0.4-0.1-0.7-0.2-1c-0.1-0.3-0.3-0.6-0.5-0.8 l-5.9-4.5c-0.5-0.4-0.8-0.8-1-1.3c-0.2-0.4-0.3-1-0.3-1.7v-5.4c0-0.8,0.2-1.5,0.5-2.2c0.3-0.7,0.7-1.3,1.2-1.8 c0.5-0.5,1.1-0.9,1.8-1.2c0.7-0.3,1.4-0.5,2.2-0.5h1.7C71.2,13,72,13.2,72.7,13.5z M94.8,18.1c0.1,0.1,0.1,0.3,0,0.4l-6.2,11.6 l6.1,14.4c0.1,0.2,0,0.3,0,0.4c-0.1,0.1-0.2,0.2-0.4,0.2h-4.5c-0.2,0-0.3-0.1-0.5-0.2c-0.2-0.1-0.3-0.2-0.3-0.4L85.7,37l-0.8,1.5 v6c0,0.4-0.2,0.6-0.6,0.6h-4c-0.4,0-0.6-0.2-0.6-0.6v-26c0-0.4,0.2-0.6,0.6-0.6h4c0.4,0,0.6,0.2,0.6,0.6v7.9l4.2-8 c0.2-0.4,0.4-0.5,0.9-0.5h4.5C94.7,17.9,94.8,17.9,94.8,18.1z M103.2,44.5c0,0.4-0.2,0.6-0.6,0.6h-4c-0.4,0-0.6-0.2-0.6-0.6v-26 c0-0.4,0.2-0.6,0.6-0.6h4c0.4,0,0.6,0.2,0.6,0.6V44.5z M119.1,40.4v4c0,0.4-0.2,0.6-0.6,0.6h-10.3c-0.4,0-0.6-0.2-0.6-0.6v-26 c0-0.4,0.2-0.6,0.6-0.6h4c0.4,0,0.6,0.2,0.6,0.6v21.3h5.6C118.9,39.8,119.1,40,119.1,40.4z M134.1,40.4v4c0,0.4-0.2,0.6-0.6,0.6 h-10.3c-0.4,0-0.6-0.2-0.6-0.6v-26c0-0.4,0.2-0.6,0.6-0.6h4c0.4,0,0.6,0.2,0.6,0.6v21.3h5.6C133.9,39.8,134.1,40,134.1,40.4z M148.4,14v4c0,0.4-0.2,0.6-0.6,0.6h-5.2v6.5h4.5c0.4,0,0.6,0.2,0.6,0.6v4c0,0.4-0.2,0.6-0.6,0.6h-4.5v14c0,0.4-0.2,0.6-0.6,0.6 h-4c-0.4,0-0.6-0.2-0.6-0.6V14c0-0.4,0.2-0.6,0.6-0.6h9.9C148.2,13.3,148.4,13.5,148.4,14z M163.8,44.5c0.1,0.4-0.1,0.6-0.5,0.6 h-4.1c-0.4,0-0.6-0.2-0.7-0.6l-0.4-4.5h-2.8l-0.4,4.5c-0.1,0.4-0.3,0.6-0.7,0.6h-4.1c-0.4,0-0.6-0.2-0.5-0.6l3.4-26 c0.1-0.4,0.3-0.6,0.7-0.6h6c0.4,0,0.7,0.2,0.7,0.6L163.8,44.5z M176,18c0.7,0.3,1.3,0.7,1.8,1.2c0.5,0.5,0.9,1.1,1.2,1.8 c0.3,0.7,0.5,1.4,0.5,2.2V26c0,0.4-0.2,0.7-0.6,0.8l-4.1,0.6c-0.4,0.1-0.6,0-0.6-0.5v-3.5c0-0.3-0.1-0.6-0.3-0.8 c-0.2-0.2-0.5-0.3-0.8-0.3h-0.4c-0.3,0-0.6,0.1-0.8,0.3c-0.2,0.2-0.3,0.5-0.3,0.8v16c0,0.3,0.1,0.6,0.3,0.8 c0.2,0.2,0.5,0.3,0.8,0.3h0.4c0.3,0,0.6-0.1,0.8-0.3c0.2-0.2,0.3-0.5,0.3-0.8V34c0-0.4,0.2-0.6,0.6-0.5l4.1,0.5 c0.4,0.1,0.6,0.4,0.6,0.8v4.8c0,0.8-0.2,1.5-0.5,2.2c-0.3,0.7-0.7,1.3-1.2,1.8c-0.5,0.5-1.1,0.9-1.8,1.2 c-0.7,0.3-1.4,0.5-2.2,0.5h-1.7c-0.8,0-1.5-0.2-2.2-0.5c-0.7-0.3-1.3-0.7-1.8-1.2c-0.5-0.5-0.9-1.1-1.2-1.8 c-0.3-0.7-0.5-1.4-0.5-2.2V23.3c0-0.8,0.2-1.5,0.5-2.2c0.3-0.7,0.7-1.3,1.2-1.8c0.5-0.5,1.1-0.9,1.8-1.2c0.7-0.3,1.4-0.5,2.2-0.5 h1.7C174.6,17.5,175.3,17.7,176,18z M194.1,18.5v4c0,0.4-0.2,0.6-0.6,0.6h-3.2v21.3c0,0.4-0.2,0.6-0.6,0.6h-4 c-0.2,0-0.3-0.1-0.4-0.2c-0.1-0.1-0.2-0.3-0.2-0.5V23.2h-3.2c-0.4,0-0.6-0.2-0.6-0.6v-4c0-0.4,0.2-0.6,0.6-0.6h11.7 C193.9,17.9,194.1,18.1,194.1,18.5z M209.6,39.7c0,0.8-0.2,1.5-0.5,2.2c-0.3,0.7-0.7,1.3-1.2,1.8c-0.5,0.5-1.1,0.9-1.8,1.2 c-0.7,0.3-1.4,0.5-2.2,0.5h-1.7c-0.8,0-1.5-0.2-2.2-0.5c-0.7-0.3-1.3-0.7-1.8-1.2c-0.5-0.5-0.9-1.1-1.2-1.8 c-0.3-0.7-0.5-1.4-0.5-2.2V23.3c0-0.8,0.2-1.5,0.5-2.2c0.3-0.7,0.7-1.3,1.2-1.8c0.5-0.5,1.1-0.9,1.8-1.2c0.7-0.3,1.4-0.5,2.2-0.5 h1.7c0.8,0,1.5,0.2,2.2,0.5c0.7,0.3,1.3,0.7,1.8,1.2c0.5,0.5,0.9,1.1,1.2,1.8c0.3,0.7,0.5,1.4,0.5,2.2V39.7z M218.5,44.5 c0,0.4-0.2,0.6-0.7,0.6h-4c-0.4,0-0.6-0.2-0.6-0.6v-26c0-0.4,0.2-0.6,0.6-0.6h6.8c0.8,0,1.5,0.2,2.2,0.5c0.7,0.3,1.3,0.7,1.8,1.2 c0.5,0.5,0.9,1.1,1.2,1.8c0.3,0.7,0.5,1.4,0.5,2.2v5.6c0,1.1-0.3,2.1-1,3c-0.7,0.9-1.5,1.6-2.4,2.1l4.3,10.2 c0.1,0.4-0.1,0.6-0.5,0.6h-4.1c-0.2,0-0.4-0.1-0.5-0.2c-0.2-0.1-0.3-0.3-0.3-0.5l-3.3-8.4V44.5z M243.8,18.1 c0.1,0.1,0.1,0.3,0,0.4l-5.2,16.1v9.9c0,0.4-0.2,0.6-0.6,0.6h-4.1c-0.4,0-0.6-0.2-0.6-0.6v-9.9L228,18.5c-0.1-0.2,0-0.3,0-0.4 c0.1-0.1,0.2-0.2,0.4-0.2h4.8c0.4,0,0.7,0.2,0.7,0.6l1.8,8.7h0.2l1.8-8.7c0.1-0.4,0.3-0.6,0.7-0.6h4.8 C243.6,17.9,243.7,17.9,243.8,18.1z M157.7,34.9l-0.9-10h-0.4l-0.9,10H157.7z M204.2,23.5c0-0.3-0.1-0.6-0.3-0.8 c-0.2-0.2-0.5-0.3-0.8-0.3h-0.4c-0.3,0-0.6,0.1-0.8,0.3c-0.2,0.2-0.3,0.5-0.3,0.8v16c0,0.3,0.1,0.6,0.3,0.8 c0.2,0.2,0.5,0.3,0.8,0.3h0.4c0.3,0,0.6-0.1,0.8-0.3c0.2-0.2,0.3-0.5,0.3-0.8V23.5z M218.5,30h1.5c0.3,0,0.6-0.1,0.8-0.3 c0.2-0.2,0.3-0.5,0.3-0.8v-5.1c0-0.3-0.1-0.6-0.3-0.8c-0.2-0.2-0.5-0.3-0.8-0.3h-1.5V30z"></path> </g> </g> </g> </svg> 